<svg width="100" height="100" viewBox="0 0 100 100" fill="none" xmlns="http://www.w3.org/2000/svg">
<path fill-rule="evenodd" clip-rule="evenodd" d="M19.3111 61.9297L5.72933 76.8107C3.71897 79.7447 6.1302 83.6364 9.72412 83.2582L18.5363 82.3309C20.3785 82.1371 22.1376 83.129 22.8868 84.784L26.39 92.523C27.8649 95.7813 32.5781 95.8382 34.1349 92.6164L43.7686 77.2572C33.6346 75.5718 24.8953 69.8895 19.3111 61.9297ZM56.2441 77.2773L65.8651 92.6164C67.4219 95.8382 72.1351 95.7813 73.61 92.523L77.1132 84.784C77.8624 83.129 79.6215 82.1371 81.4637 82.3309L90.2759 83.2582C93.8698 83.6364 96.281 79.7447 94.2707 76.8107L80.7652 62.0134C75.156 69.9613 66.3946 75.6234 56.2441 77.2773Z" fill="#667175"/>
<path fill-rule="evenodd" clip-rule="evenodd" d="M50.0676 77.775C70.6441 77.775 87.3246 61.4837 87.3246 41.3875C87.3246 21.2912 70.6441 5 50.0676 5C29.4911 5 12.8106 21.2912 12.8106 41.3875C12.8106 61.4837 29.4911 77.775 50.0676 77.775ZM53.1079 18.7547C52.1972 16.0174 48.3253 16.0174 47.4147 18.7547L43.7745 29.6965C43.3667 30.9223 42.2198 31.7494 40.9279 31.7494L29.3015 31.7494C26.3782 31.7494 25.1814 35.5044 27.5655 37.1961L36.8485 43.7832C37.9249 44.547 38.3757 45.9245 37.959 47.1769L34.3846 57.9211C33.4692 60.6726 36.6024 62.9928 38.9673 61.3147L48.5252 54.5326C49.565 53.7948 50.9576 53.7948 51.9974 54.5326L61.5552 61.3147C63.9201 62.9928 67.0533 60.6726 66.1379 57.9211L62.5635 47.1769C62.1469 45.9245 62.5976 44.547 63.674 43.7832L72.9571 37.1961C75.3412 35.5044 74.1443 31.7494 71.221 31.7494L59.5946 31.7494C58.3027 31.7494 57.1559 30.9223 56.748 29.6965L53.1079 18.7547Z" fill="#667175"/>
</svg>
