<svg width="100" height="100" viewBox="0 0 100 100" fill="none" xmlns="http://www.w3.org/2000/svg">
<path fill-rule="evenodd" clip-rule="evenodd" d="M47.1277 5C43.9549 5 41.383 7.57197 41.383 10.7447C41.383 13.0004 39.8198 14.9276 37.6935 15.6805C36.5636 16.0806 35.4595 16.5352 34.3844 17.0413C32.3609 17.994 29.9169 17.7306 28.3354 16.1491C26.092 13.9057 22.4547 13.9057 20.2112 16.1491L16.1491 20.2112C13.9057 22.4547 13.9057 26.092 16.1491 28.3355C17.7306 29.917 17.994 32.3609 17.0413 34.3845C16.5352 35.4595 16.0806 36.5636 15.6805 37.6935C14.9276 39.8198 13.0004 41.383 10.7447 41.383C7.57197 41.383 5 43.9549 5 47.1277V52.8723C5 56.0451 7.57197 58.617 10.7447 58.617C13.076 58.617 15.0735 60.2169 15.8889 62.401C16.247 63.3602 16.6447 64.3001 17.08 65.2188C18.1003 67.3719 17.8339 69.9798 16.1491 71.6645C13.9057 73.908 13.9057 77.5453 16.1491 79.7887L20.2112 83.8508C22.4547 86.0943 26.092 86.0943 28.3355 83.8508C30.0962 82.0901 32.811 81.7891 35.0862 82.8011C35.7936 83.1158 36.5129 83.4083 37.2433 83.678C39.6226 84.5564 41.383 86.719 41.383 89.2553C41.383 92.428 43.9549 95 47.1277 95H52.8723C56.0451 95 58.617 92.428 58.617 89.2553C58.617 86.6425 60.4129 84.4084 62.8483 83.4619C63.4131 83.2424 63.971 83.0092 64.5216 82.7625C66.9255 81.6857 69.802 81.9883 71.6645 83.8509C73.908 86.0943 77.5453 86.0943 79.7887 83.8509L83.8508 79.7888C86.0943 77.5453 86.0943 73.908 83.8508 71.6645C81.9883 69.802 81.6857 66.9255 82.7625 64.5217C83.0091 63.9711 83.2424 63.4131 83.4619 62.8483C84.4084 60.4129 86.6425 58.617 89.2553 58.617C92.428 58.617 95 56.045 95 52.8723V47.1277C95 43.9549 92.428 41.383 89.2553 41.383C86.719 41.383 84.5564 39.6226 83.678 37.2433C83.4083 36.5129 83.1158 35.7936 82.8012 35.0863C81.7892 32.8111 82.0901 30.0962 83.8509 28.3354C86.0943 26.092 86.0943 22.4547 83.8509 20.2112L79.7888 16.1491C77.5453 13.9057 73.908 13.9057 71.6645 16.1491C69.9798 17.8339 67.3719 18.1003 65.2188 17.08C64.3001 16.6447 63.3602 16.247 62.401 15.8889C60.2169 15.0735 58.617 13.076 58.617 10.7447C58.617 7.57197 56.0451 5 52.8723 5H47.1277ZM50 66.7553C59.2537 66.7553 66.7553 59.2537 66.7553 50C66.7553 40.7463 59.2537 33.2447 50 33.2447C40.7463 33.2447 33.2447 40.7463 33.2447 50C33.2447 59.2537 40.7463 66.7553 50 66.7553Z" fill="#667175"/>
</svg>
