<svg width="160" height="187" viewBox="0 0 160 187" fill="none" xmlns="http://www.w3.org/2000/svg">
<g filter="url(#filter0_d_8_193)">
<ellipse cx="81" cy="70.9999" rx="59.1667" ry="59.1667" fill="white"/>
<g filter="url(#filter1_i_8_193)">
<path fill-rule="evenodd" clip-rule="evenodd" d="M81 142C120.212 142 152 110.212 152 71C152 31.7878 120.212 0 81 0C41.7878 0 10 31.7878 10 71C10 110.212 41.7878 142 81 142ZM81 130.167C113.677 130.167 140.167 103.677 140.167 70.9999C140.167 38.3231 113.677 11.8333 81 11.8333C48.3232 11.8333 21.8333 38.3231 21.8333 70.9999C21.8333 103.677 48.3232 130.167 81 130.167Z" fill="url(#paint0_linear_8_193)"/>
</g>
<path fill-rule="evenodd" clip-rule="evenodd" d="M66.0115 94.3775C52.9355 89.5156 30.1794 70.2233 43.7628 31.95C77.1357 37.2009 81.2341 70.4567 79.4777 86.7929C78.7308 88.8396 77.6862 90.4709 76.4198 91.7058C77.2668 84.9194 56.5354 49.5247 54.8869 50.6198C58.3902 56.9947 68.2956 75.63 73.5762 93.6701C71.3396 94.705 68.739 94.9212 66.0115 94.3775Z" fill="#C7C7C7"/>
<path fill-rule="evenodd" clip-rule="evenodd" d="M96.4946 94.3775C109.571 89.5156 132.327 70.2233 118.743 31.95C85.3704 37.2009 81.272 70.4567 83.0284 86.7929C83.7753 88.8395 84.8199 90.4708 86.0862 91.7057C85.2394 84.9191 105.971 49.5247 107.619 50.6198C104.116 56.9947 94.2104 75.63 88.9298 93.6701C91.1665 94.705 93.767 94.9212 96.4946 94.3775Z" fill="#C7C7C7"/>
<path d="M43.1333 115.967C52.5825 105.774 66.0514 99.3999 81 99.3999C95.9486 99.3999 109.417 105.774 118.867 115.967C109.417 126.16 95.9486 130.167 81 130.167C66.0514 130.167 52.5825 126.16 43.1333 115.967Z" fill="#C7C7C7"/>
</g>
<g filter="url(#filter2_d_8_193)">
<rect x="10" y="144" width="142" height="35" rx="15" fill="white"/>
</g>
<defs>
<filter id="filter0_d_8_193" x="6" y="0" width="150" height="150" filterUnits="userSpaceOnUse" color-interpolation-filters="sRGB">
<feFlood flood-opacity="0" result="BackgroundImageFix"/>
<feColorMatrix in="SourceAlpha" type="matrix" values="0 0 0 0 0 0 0 0 0 0 0 0 0 0 0 0 0 0 127 0" result="hardAlpha"/>
<feOffset dy="4"/>
<feGaussianBlur stdDeviation="2"/>
<feComposite in2="hardAlpha" operator="out"/>
<feColorMatrix type="matrix" values="0 0 0 0 0 0 0 0 0 0 0 0 0 0 0 0 0 0 0.25 0"/>
<feBlend mode="normal" in2="BackgroundImageFix" result="effect1_dropShadow_8_193"/>
<feBlend mode="normal" in="SourceGraphic" in2="effect1_dropShadow_8_193" result="shape"/>
</filter>
<filter id="filter1_i_8_193" x="10" y="0" width="142" height="146" filterUnits="userSpaceOnUse" color-interpolation-filters="sRGB">
<feFlood flood-opacity="0" result="BackgroundImageFix"/>
<feBlend mode="normal" in="SourceGraphic" in2="BackgroundImageFix" result="shape"/>
<feColorMatrix in="SourceAlpha" type="matrix" values="0 0 0 0 0 0 0 0 0 0 0 0 0 0 0 0 0 0 127 0" result="hardAlpha"/>
<feOffset dy="4"/>
<feGaussianBlur stdDeviation="4"/>
<feComposite in2="hardAlpha" operator="arithmetic" k2="-1" k3="1"/>
<feColorMatrix type="matrix" values="0 0 0 0 1 0 0 0 0 1 0 0 0 0 1 0 0 0 1 0"/>
<feBlend mode="normal" in2="shape" result="effect1_innerShadow_8_193"/>
</filter>
<filter id="filter2_d_8_193" x="6" y="144" width="150" height="43" filterUnits="userSpaceOnUse" color-interpolation-filters="sRGB">
<feFlood flood-opacity="0" result="BackgroundImageFix"/>
<feColorMatrix in="SourceAlpha" type="matrix" values="0 0 0 0 0 0 0 0 0 0 0 0 0 0 0 0 0 0 127 0" result="hardAlpha"/>
<feOffset dy="4"/>
<feGaussianBlur stdDeviation="2"/>
<feComposite in2="hardAlpha" operator="out"/>
<feColorMatrix type="matrix" values="0 0 0 0 0 0 0 0 0 0 0 0 0 0 0 0 0 0 0.25 0"/>
<feBlend mode="normal" in2="BackgroundImageFix" result="effect1_dropShadow_8_193"/>
<feBlend mode="normal" in="SourceGraphic" in2="effect1_dropShadow_8_193" result="shape"/>
</filter>
<linearGradient id="paint0_linear_8_193" x1="81" y1="142" x2="81" y2="0" gradientUnits="userSpaceOnUse">
<stop stop-color="#F5F5F5"/>
<stop offset="1" stop-color="#FAFDFF" stop-opacity="0"/>
</linearGradient>
</defs>
</svg>
