<svg width="160" height="193" viewBox="0 0 160 193" fill="none" xmlns="http://www.w3.org/2000/svg">
<g filter="url(#filter0_d_12_769)">
<g filter="url(#filter1_i_12_769)">
<path fill-rule="evenodd" clip-rule="evenodd" d="M80 148C119.212 148 151 116.212 151 77C151 37.7878 119.212 6 80 6C40.7878 6 9 37.7878 9 77C9 116.212 40.7878 148 80 148ZM80 136.167C112.677 136.167 139.167 109.677 139.167 77C139.167 44.3232 112.677 17.8333 80 17.8333C47.3232 17.8333 20.8333 44.3232 20.8333 77C20.8333 109.677 47.3232 136.167 80 136.167Z" fill="url(#paint0_linear_12_769)"/>
</g>
<circle cx="80" cy="77" r="59.1667" fill="white"/>
<g filter="url(#filter2_ii_12_769)">
<path d="M58.7672 49.1006V17.8922C58.7672 12.1714 63.4049 7.53358 69.1259 7.53358C70.8727 7.53358 72.5184 7.96592 73.9618 8.72932C74.7434 3.78254 79.0266 0 84.1931 0C89.3595 0 93.6427 3.78254 94.4244 8.72932C95.8677 7.96592 97.5134 7.53358 99.2602 7.53358C104.981 7.53358 109.619 12.1714 109.619 17.8922V26.7574C114.159 22.6007 120.919 25.3928 120.919 30.1343V99.8199C120.919 103.898 117.415 107.598 114.783 110.311C114.872 111.989 114.677 113.72 114.159 115.45L111.899 122.983C109.987 129.357 104.12 133.721 97.4669 133.721H78.6495C72.8329 133.721 67.5354 130.373 65.0395 125.118L61.4613 117.585C60.6676 115.914 60.2101 114.201 60.0506 112.505C56.2116 110.039 54.4519 108.386 54.0555 103.587C53.1184 102.474 48.9006 97.1898 48.9006 97.1898L28.6122 50.204C26.4451 45.1853 28.1938 39.3351 32.7597 36.329C37.9566 32.9078 44.9425 34.347 48.364 39.5436L56.0056 51.1508C56.8425 50.3673 57.7685 49.6783 58.7672 49.1006Z" fill="#F9D290"/>
</g>
<path d="M59.0176 49.5334L59.2672 49.389V49.1006V17.8922C59.2672 12.4475 63.6811 8.03358 69.1259 8.03358C70.7893 8.03358 72.3549 8.44508 73.728 9.17131L74.3464 9.49841L74.4556 8.80736C75.1995 4.09976 79.2765 0.5 84.1931 0.5C89.1097 0.5 93.1866 4.09976 93.9305 8.80736L94.0397 9.49841L94.6581 9.17131C96.0312 8.44508 97.5968 8.03358 99.2602 8.03358C104.705 8.03358 109.119 12.4475 109.119 17.8922V26.7574V27.8932L109.957 27.1262C112.084 25.1781 114.716 24.8669 116.81 25.5822C118.917 26.3018 120.419 28.0272 120.419 30.1343V99.8199C120.419 101.717 119.603 103.562 118.425 105.297C117.247 107.03 115.742 108.604 114.424 109.963L114.272 110.119L114.284 110.337C114.369 111.958 114.182 113.632 113.68 115.306L111.42 122.84C109.571 129.001 103.9 133.221 97.4669 133.221H78.6495C73.0259 133.221 67.9042 129.984 65.4912 124.904L61.9129 117.37L61.4613 117.585L61.9129 117.37C61.1444 115.753 60.7025 114.096 60.5484 112.458L60.5256 112.216L60.3208 112.085C58.4032 110.852 57.0748 109.865 56.1652 108.625C55.2675 107.401 54.7472 105.887 54.5538 103.546L54.5407 103.387L54.438 103.265C53.9742 102.714 52.6902 101.12 51.5166 99.6579C50.931 98.9281 50.3747 98.2331 49.9647 97.7205L49.4743 97.1069L49.3389 96.9374L49.3331 96.9301L29.0713 50.0058C27.0004 45.2098 28.6714 39.6192 33.0347 36.7466C38.0008 33.4772 44.6767 34.8526 47.9464 39.8185L55.588 51.4257L55.9142 51.9212L56.3473 51.5158C57.1566 50.7582 58.0521 50.0919 59.0176 49.5334Z" stroke="#DBA243"/>
<path d="M93.6069 9.41724V44.26M108.674 26.3678V66.8608M74.7728 9.41724V44.26" stroke="#DBA243" stroke-linecap="round" stroke-linejoin="round"/>
<path d="M44.5 22L131.5 115" stroke="#DBA243" stroke-width="8" stroke-linecap="round" stroke-linejoin="round"/>
</g>
<g filter="url(#filter3_d_12_769)">
<rect x="9" y="150" width="142" height="35" rx="15" fill="white"/>
</g>
<defs>
<filter id="filter0_d_12_769" x="5" y="0" width="150" height="156" filterUnits="userSpaceOnUse" color-interpolation-filters="sRGB">
<feFlood flood-opacity="0" result="BackgroundImageFix"/>
<feColorMatrix in="SourceAlpha" type="matrix" values="0 0 0 0 0 0 0 0 0 0 0 0 0 0 0 0 0 0 127 0" result="hardAlpha"/>
<feOffset dy="4"/>
<feGaussianBlur stdDeviation="2"/>
<feComposite in2="hardAlpha" operator="out"/>
<feColorMatrix type="matrix" values="0 0 0 0 0 0 0 0 0 0 0 0 0 0 0 0 0 0 0.25 0"/>
<feBlend mode="normal" in2="BackgroundImageFix" result="effect1_dropShadow_12_769"/>
<feBlend mode="normal" in="SourceGraphic" in2="effect1_dropShadow_12_769" result="shape"/>
</filter>
<filter id="filter1_i_12_769" x="9" y="6" width="142" height="146" filterUnits="userSpaceOnUse" color-interpolation-filters="sRGB">
<feFlood flood-opacity="0" result="BackgroundImageFix"/>
<feBlend mode="normal" in="SourceGraphic" in2="BackgroundImageFix" result="shape"/>
<feColorMatrix in="SourceAlpha" type="matrix" values="0 0 0 0 0 0 0 0 0 0 0 0 0 0 0 0 0 0 127 0" result="hardAlpha"/>
<feOffset dy="4"/>
<feGaussianBlur stdDeviation="4"/>
<feComposite in2="hardAlpha" operator="arithmetic" k2="-1" k3="1"/>
<feColorMatrix type="matrix" values="0 0 0 0 1 0 0 0 0 1 0 0 0 0 1 0 0 0 1 0"/>
<feBlend mode="normal" in2="shape" result="effect1_innerShadow_12_769"/>
</filter>
<filter id="filter2_ii_12_769" x="25.688" y="-4" width="99.2312" height="141.721" filterUnits="userSpaceOnUse" color-interpolation-filters="sRGB">
<feFlood flood-opacity="0" result="BackgroundImageFix"/>
<feBlend mode="normal" in="SourceGraphic" in2="BackgroundImageFix" result="shape"/>
<feColorMatrix in="SourceAlpha" type="matrix" values="0 0 0 0 0 0 0 0 0 0 0 0 0 0 0 0 0 0 127 0" result="hardAlpha"/>
<feOffset dx="-2" dy="-6"/>
<feGaussianBlur stdDeviation="2"/>
<feComposite in2="hardAlpha" operator="arithmetic" k2="-1" k3="1"/>
<feColorMatrix type="matrix" values="0 0 0 0 0.858824 0 0 0 0 0.635294 0 0 0 0 0.262745 0 0 0 1 0"/>
<feBlend mode="normal" in2="shape" result="effect1_innerShadow_12_769"/>
<feColorMatrix in="SourceAlpha" type="matrix" values="0 0 0 0 0 0 0 0 0 0 0 0 0 0 0 0 0 0 127 0" result="hardAlpha"/>
<feOffset dx="6" dy="4"/>
<feGaussianBlur stdDeviation="2"/>
<feComposite in2="hardAlpha" operator="arithmetic" k2="-1" k3="1"/>
<feColorMatrix type="matrix" values="0 0 0 0 1 0 0 0 0 0.904048 0 0 0 0 0.741667 0 0 0 1 0"/>
<feBlend mode="normal" in2="effect1_innerShadow_12_769" result="effect2_innerShadow_12_769"/>
</filter>
<filter id="filter3_d_12_769" x="5" y="150" width="150" height="43" filterUnits="userSpaceOnUse" color-interpolation-filters="sRGB">
<feFlood flood-opacity="0" result="BackgroundImageFix"/>
<feColorMatrix in="SourceAlpha" type="matrix" values="0 0 0 0 0 0 0 0 0 0 0 0 0 0 0 0 0 0 127 0" result="hardAlpha"/>
<feOffset dy="4"/>
<feGaussianBlur stdDeviation="2"/>
<feComposite in2="hardAlpha" operator="out"/>
<feColorMatrix type="matrix" values="0 0 0 0 0 0 0 0 0 0 0 0 0 0 0 0 0 0 0.25 0"/>
<feBlend mode="normal" in2="BackgroundImageFix" result="effect1_dropShadow_12_769"/>
<feBlend mode="normal" in="SourceGraphic" in2="effect1_dropShadow_12_769" result="shape"/>
</filter>
<linearGradient id="paint0_linear_12_769" x1="80" y1="148" x2="80" y2="6" gradientUnits="userSpaceOnUse">
<stop stop-color="#F5F5F5"/>
<stop offset="1" stop-color="#FAFDFF" stop-opacity="0"/>
</linearGradient>
</defs>
</svg>
