<svg width="100" height="100" viewBox="0 0 100 100" fill="none" xmlns="http://www.w3.org/2000/svg">
<mask id="path-1-inside-1_8_118" fill="white">
<rect x="10" y="25" width="80" height="71" rx="4"/>
</mask>
<rect x="10" y="25" width="80" height="71" rx="4" stroke="#D8E8F1" stroke-width="16" mask="url(#path-1-inside-1_8_118)"/>
<rect x="36" y="61" width="28" height="35" rx="4" fill="#D8E8F1"/>
<path fill-rule="evenodd" clip-rule="evenodd" d="M17.5378 3.25806C15.7486 3.25806 14.1769 4.44629 13.6893 6.16779L8.36558 24.9599C7.15208 27.0447 6.45801 29.4624 6.45801 32.0403C6.45801 39.8926 12.8975 46.2581 20.8411 46.2581C28.7782 46.2581 35.2137 39.9029 35.2241 32.0594C35.2348 39.9029 41.8273 46.258 49.958 46.258C58.0953 46.258 64.6918 39.8925 64.6918 32.0403C64.6918 31.9244 64.6904 31.8088 64.6875 31.6935H64.6961C64.6933 31.8088 64.6919 31.9244 64.6919 32.0403C64.6919 39.8925 71.1314 46.258 79.0749 46.258C87.0185 46.258 93.458 39.8925 93.458 32.0403C93.458 29.4623 92.7639 27.0446 91.5504 24.9598L86.2267 6.16779C85.7391 4.44629 84.1674 3.25806 82.3782 3.25806H17.5378ZM35.2241 32.0208C35.2243 31.9114 35.2257 31.8023 35.2284 31.6935H35.2199C35.2226 31.8023 35.224 31.9114 35.2241 32.0208Z" fill="#D8E8F1"/>
</svg>
